<svg width="22" height="22" viewBox="0 0 22 22" fill="none" xmlns="http://www.w3.org/2000/svg">
<g clip-path="url(#clip0_24_2408)">
<path d="M21.2664 5.41804L17.1564 9.52813L16.8341 10.0402L16.5118 9.53015L14.7103 7.74003C14.5087 7.53975 14.1832 7.54027 13.9823 7.74119L10.4897 11.2338L10.1674 11.7172L9.84513 11.2559L8.82282 10.3036C8.61966 10.1144 8.30311 10.12 8.10679 10.3163L1.43086 16.9921L1.01892 21.2846H12.851L22 20.5691V5.72187C22 5.33906 21.5371 5.14734 21.2664 5.41804Z" fill="#A2E62E"/>
<path d="M20.6586 6.02601V21.1404L22.0001 20.5691V5.72187C22.0001 5.33906 21.5372 5.14734 21.2665 5.41804L20.6586 6.02601Z" fill="#97D729"/>
<path d="M16.8341 10.4949C17.0121 10.4949 17.1564 10.3506 17.1564 10.1726V9.52814L17.137 9.54752C16.9696 9.71492 16.6982 9.71535 16.5303 9.54846L16.5118 9.53011V10.1726C16.5118 10.3506 16.6561 10.4949 16.8341 10.4949Z" fill="#EAF6FF"/>
<path d="M16.8341 19.1037C16.6561 19.1037 16.5118 18.9594 16.5118 18.7815V18.0946C16.5118 17.9166 16.6561 17.7723 16.8341 17.7723C17.0121 17.7723 17.1564 17.9166 17.1564 18.0946V18.7815C17.1564 18.9595 17.0121 19.1037 16.8341 19.1037ZM16.8341 16.9516C16.6561 16.9516 16.5118 16.8073 16.5118 16.6293V15.9424C16.5118 15.7645 16.6561 15.6202 16.8341 15.6202C17.0121 15.6202 17.1564 15.7645 17.1564 15.9424V16.6293C17.1564 16.8073 17.0121 16.9516 16.8341 16.9516ZM16.8341 14.7993C16.6561 14.7993 16.5118 14.6551 16.5118 14.4771V13.7902C16.5118 13.6122 16.6561 13.468 16.8341 13.468C17.0121 13.468 17.1564 13.6122 17.1564 13.7902V14.4771C17.1564 14.6551 17.0121 14.7993 16.8341 14.7993ZM16.8341 12.6471C16.6561 12.6471 16.5118 12.5028 16.5118 12.3249V11.638C16.5118 11.46 16.6561 11.3157 16.8341 11.3157C17.0121 11.3157 17.1564 11.46 17.1564 11.638V12.3249C17.1564 12.5028 17.0121 12.6471 16.8341 12.6471Z" fill="#EAF6FF"/>
<path d="M16.8341 20.8914C16.6561 20.8914 16.5118 20.7471 16.5118 20.5691V20.2468C16.5118 20.0688 16.6561 19.9246 16.8341 19.9246C17.0121 19.9246 17.1564 20.0688 17.1564 20.2468V20.5691C17.1564 20.7471 17.0121 20.8914 16.8341 20.8914Z" fill="#EAF6FF"/>
<path d="M10.4606 11.2628C10.297 11.4264 10.0332 11.4311 9.86387 11.2733L9.84509 11.2558V11.8783C9.84509 12.0563 9.98934 12.2006 10.1674 12.2006C10.3454 12.2006 10.4896 12.0563 10.4896 11.8783V11.2338L10.4606 11.2628Z" fill="#EAF6FF"/>
<path d="M10.1674 19.0212C9.98934 19.0212 9.84509 18.8769 9.84509 18.6989V17.9733C9.84509 17.7953 9.98934 17.651 10.1674 17.651C10.3454 17.651 10.4896 17.7953 10.4896 17.9733V18.6989C10.4896 18.8769 10.3454 19.0212 10.1674 19.0212ZM10.1674 16.7476C9.98934 16.7476 9.84509 16.6033 9.84509 16.4253V15.6997C9.84509 15.5218 9.98934 15.3775 10.1674 15.3775C10.3454 15.3775 10.4896 15.5218 10.4896 15.6997V16.4253C10.4896 16.6033 10.3454 16.7476 10.1674 16.7476ZM10.1674 14.4741C9.98934 14.4741 9.84509 14.3298 9.84509 14.1518V13.4262C9.84509 13.2482 9.98934 13.1039 10.1674 13.1039C10.3454 13.1039 10.4896 13.2482 10.4896 13.4262V14.1518C10.4896 14.3298 10.3454 14.4741 10.1674 14.4741Z" fill="#EAF6FF"/>
<path d="M10.1674 20.8914C9.98934 20.8914 9.84509 20.7471 9.84509 20.5691V20.2468C9.84509 20.0688 9.98934 19.9246 10.1674 19.9246C10.3454 19.9246 10.4896 20.0688 10.4896 20.2468V20.5691C10.4896 20.7471 10.3454 20.8914 10.1674 20.8914Z" fill="#EAF6FF"/>
<path d="M1.4309 20.1394V0.357715C1.4309 0.160145 1.27076 0 1.07319 0H0.357715C0.160187 0 0 0.160145 0 0.357715V21.2845C0 21.6797 0.320332 22 0.715473 22H21.6423C21.8399 22 22 21.8399 22 21.6423V20.5691H1.86059C1.62327 20.5691 1.4309 20.3767 1.4309 20.1394Z" fill="#60B7FF"/>
<path d="M20.6586 20.5691V22H21.6423C21.8399 22 22 21.8398 22 21.6423V20.5691H20.6586Z" fill="#26A6FE"/>
<path d="M6.88613 7.33605C8.91117 7.33605 10.5528 5.69444 10.5528 3.6694C10.5528 1.64436 8.91117 0.00274658 6.88613 0.00274658C4.8611 0.00274658 3.21948 1.64436 3.21948 3.6694C3.21948 5.69444 4.8611 7.33605 6.88613 7.33605Z" fill="#FFE177"/>
<path d="M8.90158 0.60675C9.28301 1.18515 9.50563 1.87755 9.50563 2.62224C9.50563 4.64727 7.86401 6.2889 5.83898 6.2889C5.09429 6.2889 4.40189 6.06627 3.82349 5.68484C4.47928 6.67931 5.60574 7.336 6.88613 7.336C8.91116 7.336 10.5528 5.69438 10.5528 3.66935C10.5528 2.38901 9.89609 1.26258 8.90158 0.60675Z" fill="#FFD15B"/>
<path d="M7.35342 3.34551C7.30564 3.32862 7.25712 3.31117 7.20844 3.29326V2.26884C7.30301 2.31206 7.3798 2.36092 7.42135 2.39276C7.56139 2.50164 7.76321 2.47689 7.87278 2.33712C7.98256 2.19704 7.95799 1.99448 7.81795 1.8847C7.80175 1.87198 7.55335 1.68051 7.20844 1.58538V1.43365C7.20844 1.25568 7.06419 1.11139 6.88617 1.11139C6.70816 1.11139 6.56391 1.25568 6.56391 1.43365V1.56449C6.55016 1.5678 6.53641 1.57094 6.52262 1.57481C6.08949 1.69628 5.79408 2.00295 5.71214 2.41614C5.63428 2.80835 5.77144 3.20878 6.06139 3.43621C6.19077 3.53771 6.34954 3.63043 6.56391 3.72733V5.06391C6.41042 5.04526 6.30068 4.99723 6.12133 4.87988C5.97223 4.78242 5.77268 4.82419 5.67519 4.97312C5.57773 5.12205 5.6195 5.32177 5.76843 5.41922C6.07952 5.62272 6.29682 5.69078 6.56391 5.71128V5.90511C6.56391 6.08309 6.70816 6.22738 6.88617 6.22738C7.06419 6.22738 7.20844 6.08309 7.20844 5.90511V5.67244C7.72639 5.52999 8.05823 5.08303 8.1324 4.64192C8.22929 4.06549 7.91622 3.54449 7.35342 3.34551ZM6.45915 2.92905C6.36303 2.85364 6.31473 2.69066 6.3443 2.54152C6.36312 2.44664 6.41799 2.32831 6.56387 2.2486V3.00128C6.52592 2.97769 6.49052 2.95367 6.45915 2.92905ZM7.49676 4.53514C7.46922 4.69889 7.37155 4.87081 7.20844 4.97544V3.98174C7.52581 4.13024 7.51708 4.41418 7.49676 4.53514Z" fill="#FEB237"/>
</g>
<defs>
<clipPath id="clip0_24_2408">
<rect width="22" height="22" fill="white"/>
</clipPath>
</defs>
</svg>
