<svg width="19" height="19" viewBox="0 0 19 19" fill="none" xmlns="http://www.w3.org/2000/svg">
<path d="M0 9.36535V3.4096C0 2.12818 1.04184 1.08936 2.32706 1.08936H16.6729C17.9581 1.08936 19 2.12814 19 3.4096V13.0426C19 14.324 17.9582 15.3629 16.6729 15.3629H12.1081C11.3243 15.3629 10.5931 14.9694 10.1629 14.3162L9.11982 12.7322C8.68958 12.079 7.95847 11.6855 7.17466 11.6855H2.32706C1.04187 11.6856 0 10.6468 0 9.36535Z" fill="#DF8621"/>
<path d="M15.444 0H7.45908C6.47161 0 5.67114 0.79816 5.67114 1.7827V12.349C5.67114 13.3336 6.47165 14.1317 7.45908 14.1317H15.444C16.4315 14.1317 17.2319 13.3336 17.2319 12.349V1.7827C17.2319 0.79816 16.4315 0 15.444 0Z" fill="#DDDAEC"/>
<path d="M12.589 2.72095H4.6041C3.61663 2.72095 2.81616 3.51911 2.81616 4.50364V15.07C2.81616 16.0545 3.61667 16.8527 4.6041 16.8527H12.589C13.5765 16.8527 14.377 16.0545 14.377 15.07V4.50364C14.377 3.51907 13.5765 2.72095 12.589 2.72095Z" fill="#F1F4F6"/>
<path d="M19 10.7241V16.6798C19 17.9612 17.9582 19.0001 16.6729 19.0001H2.32706C1.04187 19.0001 0 17.9613 0 16.6798V7.0468C0 5.76538 1.04184 4.72656 2.32706 4.72656H6.89192C7.67573 4.72656 8.40688 5.11998 8.83708 5.77326L9.88019 7.35717C10.3104 8.01042 11.0415 8.40387 11.8253 8.40387H16.6729C17.9582 8.40387 19 9.44266 19 10.7241Z" fill="#E7A52E"/>
<path d="M4.22153 18.9998H2.32717C1.04202 18.9998 0 17.9608 0 16.6795V7.04667C0 5.76529 1.04202 4.72632 2.32717 4.72632H4.22153C2.93639 4.72632 1.89437 5.76529 1.89437 7.04667V16.6795C1.89437 17.9608 2.93639 18.9998 4.22153 18.9998Z" fill="#E49824"/>
<path d="M11.7793 7.37309C11.6926 7.37309 11.61 7.33404 11.5551 7.26597L10.5536 6.02319C10.4541 5.89976 10.4739 5.71929 10.5977 5.62008C10.7216 5.52087 10.9026 5.5406 11.002 5.664L11.7302 6.56765L12.7834 4.59192C12.8579 4.45214 13.032 4.39893 13.1722 4.47332C13.3125 4.54763 13.3658 4.72123 13.2912 4.86105L12.0332 7.22093C11.984 7.31412 11.8849 7.37342 11.7793 7.37309Z" fill="#B3E59F"/>
<path d="M7.12258 10.4614H2.21763C2.05881 10.4614 1.93005 10.333 1.93005 10.1747C1.93005 10.0163 2.05877 9.88794 2.21763 9.88794H7.12258C7.28141 9.88794 7.41016 10.0163 7.41016 10.1747C7.41013 10.3331 7.28141 10.4614 7.12258 10.4614Z" fill="#FFE07D"/>
<path d="M7.12271 11.5222H2.21776C2.05893 11.5222 1.93018 11.3938 1.93018 11.2355C1.93018 11.0771 2.05889 10.9487 2.21776 10.9487H7.12271C7.28153 10.9487 7.41029 11.0771 7.41029 11.2355C7.41025 11.3938 7.28153 11.5222 7.12271 11.5222Z" fill="#FFE07D"/>
</svg>
