<svg width="24" height="24" viewBox="0 0 24 24" fill="none" xmlns="http://www.w3.org/2000/svg">
<g clip-path="url(#clip0_24_2432)">
<path d="M11.9891 23.0731C11.7892 23.0731 11.627 22.9109 11.627 22.7108V19.6234C11.627 19.4233 11.7892 19.2612 11.9891 19.2612C12.1893 19.2612 12.3513 19.4233 12.3513 19.6234V22.7108C12.3513 22.9109 12.1891 23.0731 11.9891 23.0731Z" fill="#E4EAF8"/>
<path d="M1.08508 4.77338V18.6495H22.8933C22.8933 18.4341 22.8933 5.1698 22.8933 4.77338H1.08508Z" fill="#E4EAF8"/>
<path d="M1.08508 4.77338V18.6495H2.53381C2.53381 18.4341 2.53381 5.1698 2.53381 4.77338H1.08508Z" fill="#C7D2E5"/>
<path d="M12.7626 23.2267C12.7626 23.6537 12.4164 24 11.9892 24C11.5622 24 11.2159 23.6537 11.2159 23.2267C11.2159 22.7996 11.5622 22.4533 11.9892 22.4533C12.4164 22.4533 12.7626 22.7996 12.7626 23.2267Z" fill="#3E4B5A"/>
<path d="M12.3514 23.2267C12.3514 23.0242 12.4297 22.8408 12.557 22.7029C12.4156 22.5498 12.2141 22.4533 11.9892 22.4533C11.5622 22.4533 11.2159 22.7996 11.2159 23.2267C11.2159 23.6537 11.5622 24 11.9892 24C12.2141 24 12.4156 23.9035 12.557 23.7504C12.4297 23.6125 12.3514 23.4291 12.3514 23.2267Z" fill="#313F4C"/>
<path d="M2.7898 4.20155C2.71455 4.01643 2.80354 3.80512 2.98884 3.72968L11.0794 0.437814C11.2647 0.362558 11.476 0.451547 11.5514 0.63685C11.6267 0.822153 11.5377 1.03346 11.3524 1.1089L3.26185 4.40058C3.076 4.47602 2.86506 4.38648 2.7898 4.20155Z" fill="#54A0FF"/>
<path d="M20.7166 4.40057L12.626 1.10888C12.4407 1.03344 12.3518 0.822137 12.427 0.636835C12.5025 0.451532 12.7138 0.362726 12.8991 0.437799L20.9896 3.72967C21.1749 3.80511 21.264 4.01641 21.1886 4.20153C21.1134 4.38647 20.9024 4.47601 20.7166 4.40057Z" fill="#54A0FF"/>
<path d="M22.9169 18.3289H1.06146C0.889526 18.3289 0.75 18.4682 0.75 18.6403V19.5641C0.75 19.736 0.889526 19.8755 1.06146 19.8755H22.9169C23.089 19.8755 23.2284 19.736 23.2284 19.5641V18.6403C23.2284 18.4682 23.089 18.3289 22.9169 18.3289Z" fill="#3E4B5A"/>
<path d="M22.9169 18.8372H1.06146C0.909119 18.8372 0.78241 18.7277 0.755493 18.583C0.752014 18.6017 0.75 18.6207 0.75 18.6403V19.5641C0.75 19.736 0.889526 19.8755 1.06146 19.8755H22.9169C23.089 19.8755 23.2284 19.736 23.2284 19.5641V18.6403C23.2284 18.6207 23.2264 18.6017 23.2231 18.583C23.196 18.7277 23.0695 18.8372 22.9169 18.8372Z" fill="#313F4C"/>
<path d="M12.7626 0.773254C12.7626 1.20044 12.4164 1.54669 11.9892 1.54669C11.5622 1.54669 11.2159 1.20044 11.2159 0.773254C11.2159 0.346252 11.5622 0 11.9892 0C12.4164 0 12.7626 0.346252 12.7626 0.773254Z" fill="#338DEF"/>
<path d="M12.238 0.773254C12.238 0.542358 12.3398 0.335632 12.5002 0.194092C12.364 0.0736084 12.1853 0 11.9892 0C11.5622 0 11.2159 0.346252 11.2159 0.773254C11.2159 1.20044 11.562 1.54669 11.9892 1.54669C12.1853 1.54669 12.364 1.47308 12.5004 1.3526C12.3398 1.21106 12.238 1.00433 12.238 0.773254Z" fill="#117AC9"/>
<path d="M22.9169 3.53229H1.06146C0.889526 3.53229 0.75 3.67163 0.75 3.84375V4.76733C0.75 4.93945 0.889526 5.07898 1.06146 5.07898H22.9169C23.089 5.07898 23.2284 4.93945 23.2284 4.76733V3.84375C23.2284 3.67163 23.089 3.53229 22.9169 3.53229Z" fill="#3E4B5A"/>
<path d="M22.9169 4.04059H1.06146C0.909119 4.04059 0.78241 3.93109 0.755493 3.78644C0.752014 3.80493 0.75 3.82416 0.75 3.84375V4.76733C0.75 4.93945 0.889526 5.07898 1.06146 5.07898H22.9169C23.089 5.07898 23.2284 4.93945 23.2284 4.76733V3.84375C23.2284 3.82416 23.2264 3.80493 23.2231 3.78644C23.196 3.93109 23.0695 4.04059 22.9169 4.04059Z" fill="#313F4C"/>
<path d="M20.3107 8.42743H14.6343C14.4341 8.42743 14.2721 8.26538 14.2721 8.06525C14.2721 7.8653 14.4341 7.70306 14.6343 7.70306H20.3107C20.5107 7.70306 20.6729 7.8653 20.6729 8.06525C20.6727 8.26538 20.5107 8.42743 20.3107 8.42743Z" fill="#C7D2E5"/>
<path d="M20.3107 10.3211H14.6343C14.4341 10.3211 14.2721 10.1591 14.2721 9.95892C14.2721 9.75879 14.4341 9.59674 14.6343 9.59674H20.3107C20.5107 9.59674 20.6729 9.75879 20.6729 9.95892C20.6727 10.1591 20.5107 10.3211 20.3107 10.3211Z" fill="#C7D2E5"/>
<path d="M20.3107 14.1083H14.6343C14.4341 14.1083 14.2721 13.9462 14.2721 13.7461C14.2721 13.546 14.4341 13.3839 14.6343 13.3839H20.3107C20.5107 13.3839 20.6729 13.546 20.6729 13.7461C20.6729 13.9462 20.5107 14.1083 20.3107 14.1083Z" fill="#C7D2E5"/>
<path d="M20.3107 16.002H14.6343C14.4341 16.002 14.2721 15.8397 14.2721 15.6398C14.2721 15.4396 14.4341 15.2776 14.6343 15.2776H20.3107C20.5107 15.2776 20.6729 15.4396 20.6729 15.6398C20.6729 15.8397 20.5107 16.002 20.3107 16.002Z" fill="#C7D2E5"/>
<path d="M20.3107 12.2146H14.6343C14.4341 12.2146 14.2721 12.0526 14.2721 11.8524C14.2721 11.6525 14.4341 11.4902 14.6343 11.4902H20.3107C20.5107 11.4902 20.6729 11.6525 20.6729 11.8524C20.6727 12.0526 20.5107 12.2146 20.3107 12.2146Z" fill="#C7D2E5"/>
<path d="M7.74286 16.8763H7.36584C7.16589 16.8763 7.00366 16.7142 7.00366 16.5141C7.00366 16.3141 7.16571 16.1519 7.36584 16.1519H7.74286C7.94299 16.1519 8.10504 16.3141 8.10504 16.5141C8.10504 16.7142 7.94299 16.8763 7.74286 16.8763Z" fill="#FECA57"/>
<path d="M5.85657 16.8763H5.47937C5.27942 16.8763 5.11719 16.7142 5.11719 16.5141C5.11719 16.3141 5.27942 16.1519 5.47937 16.1519H5.85657C6.05652 16.1519 6.21875 16.3141 6.21875 16.5141C6.21875 16.7142 6.05652 16.8763 5.85657 16.8763Z" fill="#54A0FF"/>
<path d="M9.62909 16.8763H9.25208C9.05194 16.8763 8.88989 16.7142 8.88989 16.5141C8.88989 16.3141 9.05194 16.1519 9.25208 16.1519H9.62909C9.82904 16.1519 9.99127 16.3141 9.99127 16.5141C9.99127 16.7142 9.82922 16.8763 9.62909 16.8763Z" fill="#FF6B6B"/>
<path d="M11.7623 10.9058H9.7005C9.7005 11.4996 9.45917 12.0372 9.06934 12.4257L10.5247 13.886C11.3155 13.0979 11.7623 12.0326 11.7623 10.9058Z" fill="#FF6B6B"/>
<path d="M7.55438 6.69763L7.5542 8.75958H7.55438C8.73962 8.75958 9.70056 9.72034 9.70056 10.9058H11.7623C11.7623 8.5816 9.87836 6.69763 7.55438 6.69763Z" fill="#FECA57"/>
<path d="M9.06946 12.4255C8.68127 12.8126 8.14587 13.0519 7.55444 13.0519C6.36902 13.0519 5.40808 12.091 5.40808 10.9058C5.40808 9.72034 6.36902 8.75958 7.55444 8.75958C7.55444 8.75958 7.55444 8.75958 7.55426 8.75958V6.69763C5.23029 6.69781 3.34631 8.5816 3.34631 10.9058C3.34631 13.2297 5.23029 15.1137 7.55426 15.1137C8.71387 15.1137 9.76361 14.6446 10.5246 13.886L9.06927 12.4257C9.06946 12.4257 9.06946 12.4257 9.06946 12.4255Z" fill="#54A0FF"/>
<path d="M10.5255 13.886H10.5245V13.887H10.5255C10.5255 13.886 10.5255 13.886 10.5255 13.886Z" fill="#54A0FF"/>
<path d="M8.27875 6.76007C8.04327 6.71924 7.80139 6.69763 7.55438 6.69763H7.5542V6.9538C7.78674 6.86847 8.02899 6.80328 8.27875 6.76007Z" fill="#E59D1F"/>
<path d="M4.79523 10.9058C4.79523 9.09082 5.94403 7.54431 7.55426 6.9538V6.69763C5.23029 6.69781 3.34631 8.5816 3.34631 10.9058C3.34631 13.2297 5.23029 15.1137 7.55426 15.1137C7.80145 15.1137 8.04333 15.0923 8.27862 15.0515C6.29999 14.7079 4.79523 12.9827 4.79523 10.9058Z" fill="#338DEF"/>
</g>
<defs>
<clipPath id="clip0_24_2432">
<rect width="24" height="24" fill="white"/>
</clipPath>
</defs>
</svg>
