<svg width="27" height="26" viewBox="0 0 27 26" fill="none" xmlns="http://www.w3.org/2000/svg">
<path d="M22.1716 7.8676C23.8079 7.32973 25.5677 8.23541 26.081 9.87954V9.87954C26.5887 11.5055 25.6828 13.2354 24.0572 13.7443L18.6044 15.4513L22.325 20.8329C23.3011 22.2448 22.9662 24.1784 21.5721 25.1798V25.1798C20.1689 26.1877 18.2156 25.8763 17.1953 24.4821L13.5591 19.5133L9.78343 24.5284C8.74905 25.9023 6.80665 26.1984 5.40986 25.1951V25.1951C4.00525 24.1862 3.67092 22.2365 4.65916 20.8173L8.39562 15.4513L2.94276 13.7443C1.31715 13.2354 0.411331 11.5055 0.918988 9.87954V9.87954C1.43231 8.23541 3.19214 7.32973 4.82841 7.8676L10.0905 9.59735V3.40949C10.0905 1.52648 11.617 0 13.5 0V0C15.383 0 16.9095 1.52648 16.9095 3.40949V9.59735L22.1716 7.8676Z" fill="white"/>
</svg>
