<svg viewBox="0 0 24 17" fill="none" xmlns="http://www.w3.org/2000/svg">
<g opacity="0.5">
<path d="M11.8601 17C13.3634 17 14.5821 15.7813 14.5821 14.278C14.5821 12.7747 13.3634 11.556 11.8601 11.556C10.3567 11.556 9.13806 12.7747 9.13806 14.278C9.13806 15.7813 10.3567 17 11.8601 17Z" fill="#CBCBCB"/>
<path d="M11.8599 5.54303C8.52559 5.54303 5.51836 7.52215 4.19878 10.5853C3.87439 11.3384 4.22186 12.2118 4.97489 12.5362C5.72802 12.8606 6.60144 12.5133 6.92583 11.7602C7.77581 9.78735 9.71258 8.51248 11.8599 8.51248C14.0073 8.51248 15.944 9.78735 16.794 11.7602C17.036 12.3217 17.5832 12.6579 18.1583 12.6579C18.3543 12.6579 18.5537 12.6189 18.745 12.5362C19.4982 12.2119 19.8455 11.3384 19.5212 10.5853C18.2015 7.52215 15.1943 5.54303 11.8599 5.54303Z" fill="#CBCBCB"/>
<path d="M23.4768 6.28105C20.8988 2.34805 16.556 0 11.86 0C7.16403 0 2.82125 2.34805 0.243175 6.28105C-0.206405 6.96685 -0.0147941 7.88713 0.670945 8.33671C0.921914 8.50124 1.2043 8.57987 1.4835 8.57987C1.96727 8.57987 2.44161 8.34377 2.7266 7.90888C4.75402 4.81597 8.16831 2.96934 11.86 2.96934C15.5517 2.96934 18.966 4.81591 20.9934 7.90882C21.4429 8.59456 22.3633 8.78623 23.0491 8.33665C23.7348 7.88713 23.9264 6.96685 23.4768 6.28105Z" fill="#CBCBCB"/>
</g>
</svg>
