<svg viewBox="0 0 60 60" fill="none" xmlns="http://www.w3.org/2000/svg">
<circle cx="30" cy="30" r="30" fill="url(#paint0_linear_19_689)"/>
<path d="M39.1716 24.8676C40.8079 24.3297 42.5677 25.2354 43.081 26.8795V26.8795C43.5887 28.5055 42.6828 30.2354 41.0572 30.7443L35.6044 32.4513L39.325 37.8329C40.3011 39.2448 39.9662 41.1784 38.5721 42.1798V42.1798C37.1689 43.1877 35.2156 42.8763 34.1953 41.4821L30.5591 36.5133L26.7834 41.5284C25.7491 42.9023 23.8067 43.1984 22.4099 42.1951V42.1951C21.0053 41.1862 20.6709 39.2365 21.6592 37.8173L25.3956 32.4513L19.9428 30.7443C18.3172 30.2354 17.4113 28.5055 17.919 26.8795V26.8795C18.4323 25.2354 20.1921 24.3297 21.8284 24.8676L27.0905 26.5973V20.4095C27.0905 18.5265 28.617 17 30.5 17V17C32.383 17 33.9095 18.5265 33.9095 20.4095V26.5973L39.1716 24.8676Z" fill="white"/>
<defs>
<linearGradient id="paint0_linear_19_689" x1="5.52036" y1="-0.000315463" x2="57.2376" y2="0.32177" gradientUnits="userSpaceOnUse">
<stop stop-color="#B75CFF"/>
<stop offset="1" stop-color="#8900F4"/>
</linearGradient>
</defs>
</svg>
