<svg viewBox="0 0 22 22" fill="none" xmlns="http://www.w3.org/2000/svg"><g opacity="0.5"><path d="M5.66667 12.6666C4.74767 12.6666 4 11.919 4 11C4 10.081 4.74767 9.33331 5.66667 9.33331C6.58567 9.33331 7.33333 10.081 7.33333 11C7.33333 11.919 6.58567 12.6666 5.66667 12.6666ZM11 12.6666C10.081 12.6666 9.33333 11.919 9.33333 11C9.33333 10.081 10.081 9.33331 11 9.33331C11.919 9.33331 12.6667 10.081 12.6667 11C12.6667 11.919 11.919 12.6666 11 12.6666ZM16.3333 12.6666C15.4143 12.6666 14.6667 11.919 14.6667 11C14.6667 10.081 15.4143 9.33331 16.3333 9.33331C17.2523 9.33331 18 10.081 18 11C18 11.919 17.2523 12.6666 16.3333 12.6666Z" fill="#CBCBCB"/></g></svg>
