<svg width="22" height="21" viewBox="0 0 22 21" fill="none" xmlns="http://www.w3.org/2000/svg">
<g clip-path="url(#clip0_24_2379)">
<path d="M2.54712 13.0963C2.55557 13.0956 2.56399 13.0952 2.57205 13.0952C2.5636 13.0956 2.55519 13.096 2.54712 13.0967V13.0963Z" fill="url(#paint0_linear_24_2379)"/>
<path d="M7.6251 10.2912H7.10943C7.10943 10.2912 1.8438 9.82447 1.87494 10.7703C1.89966 11.5217 1.84971 12.2764 1.72944 13.0244C1.7036 13.1852 1.69019 13.3499 1.69019 13.5176V16.0222V16.1105L1.69351 16.1173C1.70934 16.4064 1.79656 16.6882 1.94983 16.9391L2.27155 17.4657C2.55763 17.9339 2.70835 18.4663 2.70835 19.0084V20.4705C2.70835 20.7629 2.95665 20.9999 3.26297 20.9999H9.42724C9.73356 20.9999 9.98186 20.7629 9.98186 20.4705V19.0087C9.98186 18.4705 10.16 17.946 10.4909 17.5103C10.8218 17.0745 11 16.5501 11 16.0118V13.5126C10.9999 11.7334 9.48897 10.2912 7.6251 10.2912Z" fill="url(#paint1_linear_24_2379)"/>
<path d="M11.0001 13.5125V16.0117C11.0001 16.2811 10.9555 16.5467 10.8695 16.7993C10.7836 17.0524 10.6562 17.2925 10.491 17.5104C10.1602 17.946 9.98195 18.4702 9.98195 19.0085V20.4702C9.98195 20.7628 9.73348 20.9999 9.42742 20.9999H3.2628C2.95675 20.9999 2.70827 20.7628 2.70827 20.4702V19.0081C2.70827 18.4676 2.55837 17.937 2.27393 17.4695L2.70827 18.1806H4.26518C4.82019 18.1806 5.32248 17.9658 5.68617 17.6186C6.04986 17.2715 6.27491 16.792 6.27491 16.2622C6.27491 15.7535 6.06336 15.2655 5.68617 14.9054L4.82826 14.087C4.62978 13.897 4.65588 13.5825 4.8836 13.4249L6.48417 12.3181C6.84018 12.0719 7.03688 11.6831 7.03688 11.2839C7.03688 11.175 7.02222 11.0653 6.99215 10.9574C6.97373 10.8912 7.12644 10.291 7.12644 10.291H7.62519C9.48906 10.2911 11.0001 11.7333 11.0001 13.5125Z" fill="url(#paint2_linear_24_2379)"/>
<path d="M3.10586 8.66337C3.60509 8.66778 4.03414 8.97327 4.24594 9.41686C4.33648 9.60623 4.38752 9.82126 4.38752 10.0483C4.38752 10.0615 4.38752 10.0744 4.38713 10.0875L4.36181 11.0762L4.20565 11.1546L2.7087 11.9069C2.33763 12.0934 2.04904 12.3868 1.87524 12.7359L1.78927 10.1139C1.76317 9.31833 2.36334 8.65716 3.10586 8.66337Z" fill="url(#paint3_linear_24_2379)"/>
<path d="M5.51805 8.19503C6.21148 8.20273 6.76213 8.71698 6.76213 9.33566C6.76213 9.36312 6.76097 9.39059 6.75868 9.41842L6.67732 10.4623C6.42329 10.2678 6.0618 10.222 5.75289 10.3773L4.36185 11.0762L4.20569 11.1546L4.24598 9.4169L4.25098 9.3049C4.26707 8.68219 4.83157 8.1877 5.51805 8.19503Z" fill="url(#paint4_linear_24_2379)"/>
<path d="M2.70831 18.1806L1.94979 16.939C1.77978 16.6607 1.69019 16.3443 1.69019 16.0221V13.5175C1.69019 12.8418 2.08235 12.2218 2.70874 11.907L5.75285 10.3774C6.18509 10.1603 6.7196 10.3363 6.91959 10.7617C7.17897 11.3134 6.99715 11.9632 6.48412 12.318L4.88346 13.4249C4.6557 13.5824 4.62951 13.8971 4.82842 14.0869L5.68621 14.9057C6.0631 15.2654 6.27486 15.7534 6.27486 16.2622C6.27486 17.3217 5.37506 18.1806 4.26509 18.1806H2.70831Z" fill="url(#paint5_linear_24_2379)"/>
<path d="M19.453 13.0963C19.4446 13.0956 19.4362 13.0952 19.4281 13.0952C19.4366 13.0956 19.445 13.096 19.453 13.0967V13.0963Z" fill="url(#paint6_linear_24_2379)"/>
<path d="M14.3751 10.2912H14.8908C14.8908 10.2912 20.1564 9.82447 20.1252 10.7703C20.1005 11.5217 20.1505 12.2764 20.2707 13.0244C20.2966 13.1852 20.31 13.3499 20.31 13.5176V16.0222V16.1105L20.3067 16.1173C20.2908 16.4064 20.2036 16.6882 20.0504 16.9391L19.7286 17.4657C19.4426 17.9339 19.2918 18.4663 19.2918 19.0084V20.4705C19.2918 20.7629 19.0435 20.9999 18.7372 20.9999H12.573C12.2667 20.9999 12.0184 20.7629 12.0184 20.4705V19.0087C12.0184 18.4705 11.8402 17.946 11.5093 17.5103C11.1784 17.0745 11.0002 16.5501 11.0002 16.0118V13.5126C11.0002 11.7334 12.5112 10.2912 14.3751 10.2912Z" fill="url(#paint7_linear_24_2379)"/>
<path d="M11.0001 13.5125V16.0117C11.0001 16.2811 11.0447 16.5467 11.1307 16.7993C11.2166 17.0524 11.344 17.2925 11.5092 17.5104C11.84 17.946 12.0182 18.4702 12.0182 19.0085V20.4702C12.0182 20.7628 12.2667 20.9999 12.5728 20.9999H18.7374C19.0435 20.9999 19.2919 20.7628 19.2919 20.4702V19.0081C19.2919 18.4676 19.4418 17.937 19.7263 17.4695L19.2919 18.1806H17.735C17.18 18.1806 16.6777 17.9658 16.314 17.6186C15.9503 17.2715 15.7253 16.792 15.7253 16.2622C15.7253 15.7535 15.9368 15.2655 16.314 14.9054L17.1719 14.087C17.3704 13.897 17.3443 13.5825 17.1166 13.4249L15.516 12.3181C15.16 12.0719 14.9633 11.6831 14.9633 11.2839C14.9633 11.175 14.978 11.0653 15.008 10.9574C15.0265 10.8912 14.8738 10.291 14.8738 10.291H14.375C12.5111 10.2911 11.0001 11.7333 11.0001 13.5125Z" fill="url(#paint8_linear_24_2379)"/>
<path d="M19.2919 18.1806H17.735C17.18 18.1806 16.6777 17.9658 16.314 17.6186C15.9503 17.2715 15.7253 16.792 15.7253 16.2622C15.7253 15.7535 15.9368 15.2655 16.314 14.9054L17.1719 14.087C17.3704 13.897 17.3443 13.5825 17.1166 13.4249L15.516 12.3181C15.16 12.0719 14.9633 11.6831 14.9633 11.2839C14.9633 11.175 14.978 11.0653 15.008 10.9574C15.0265 10.8912 14.8738 10.291 14.8738 10.291H14.375C12.5111 10.291 11.0001 11.7333 11.0001 13.5125V16.0117C11.0001 16.2811 11.0447 16.5467 11.1307 16.7993C11.1546 16.8696 11.1819 16.9388 11.2121 17.0068L15.3954 20.9999H18.7374C19.0435 20.9999 19.292 20.7627 19.292 20.4702V19.0081C19.292 18.4676 19.4419 17.937 19.7263 17.4695L19.2919 18.1806Z" fill="url(#paint9_linear_24_2379)"/>
<path d="M18.8943 8.66337C18.3951 8.66778 17.9661 8.97327 17.7542 9.41686C17.6637 9.60623 17.6127 9.82126 17.6127 10.0483C17.6127 10.0615 17.6127 10.0744 17.6131 10.0875L17.6384 11.0762L17.7945 11.1546L19.2915 11.9069C19.6626 12.0934 19.9511 12.3868 20.1249 12.7359L20.2109 10.1139C20.237 9.31833 19.6368 8.65716 18.8943 8.66337Z" fill="url(#paint10_linear_24_2379)"/>
<path d="M16.4821 8.19503C15.7887 8.20273 15.238 8.71698 15.238 9.33566C15.238 9.36312 15.2392 9.39059 15.2415 9.41842L15.3228 10.4623C15.5769 10.2678 15.9384 10.222 16.2473 10.3773L17.6383 11.0762L17.7945 11.1546L17.7542 9.4169L17.7492 9.3049C17.7331 8.68219 17.1686 8.1877 16.4821 8.19503Z" fill="url(#paint11_linear_24_2379)"/>
<path d="M19.2919 18.1806L20.0504 16.939C20.2204 16.6607 20.31 16.3443 20.31 16.0221V13.5175C20.31 12.8418 19.9178 12.2218 19.2914 11.907L16.2473 10.3774C15.8151 10.1603 15.2806 10.3363 15.0806 10.7617C14.8212 11.3134 15.003 11.9632 15.5161 12.318L17.1167 13.4249C17.3445 13.5824 17.3707 13.8971 17.1718 14.0869L16.314 14.9057C15.9371 15.2654 15.7253 15.7534 15.7253 16.2622C15.7253 17.3217 16.6251 18.1806 17.7351 18.1806H19.2919Z" fill="url(#paint12_linear_24_2379)"/>
<path d="M4.83777 13.5817L10.0284 18.5364C10.1011 18.1679 10.258 17.8172 10.4909 17.5104C10.6561 17.2926 10.7835 17.0524 10.8695 16.7994C10.9555 16.5467 11 16.2812 11 16.0118V13.5817H4.83777Z" fill="url(#paint13_linear_24_2379)"/>
<path d="M11 16.9822C10.6116 16.9822 10.2225 16.8944 9.87495 16.7284C8.82443 16.2265 6.77295 15.1504 4.83777 13.5816C2.32032 11.5408 0.828161 9.35031 0.402741 7.07091C0.0722666 5.30019 0.544059 3.49259 1.69716 2.11153C2.76507 0.832506 4.27832 0.0850706 5.95822 0.00691765C6.057 0.00230588 6.15708 0 6.2556 0C7.82951 0 9.31529 0.578982 10.4393 1.6303C10.6423 1.82021 10.8295 2.02172 11 2.23321C11.1705 2.02172 11.3577 1.82016 11.5608 1.63022C12.6847 0.578982 14.1705 0 15.7445 0C15.843 0 15.9431 0.00234706 16.0419 0.00691765C17.7217 0.0850706 19.235 0.832506 20.3029 2.11161C21.4561 3.49267 21.9278 5.30028 21.5973 7.07095C21.1719 9.35031 19.6797 11.5409 17.1623 13.5816C15.2272 15.1503 13.1758 16.2265 12.1251 16.7284C11.7775 16.8945 11.3884 16.9822 11 16.9822Z" fill="url(#paint14_linear_24_2379)"/>
<path d="M20.3029 2.11167C19.9026 1.63221 19.4397 1.22749 18.929 0.904663C19.8615 2.22643 20.223 3.86476 19.9228 5.4727C19.4975 7.75206 18.0053 9.94261 15.4879 11.9834C13.5527 13.5521 11.5013 14.6283 10.4507 15.1301C10.103 15.2962 9.71398 15.384 9.32557 15.384C8.93716 15.384 8.54811 15.2962 8.20051 15.1301C7.14999 14.6283 5.09851 13.5522 3.16333 11.9834C3.08042 11.9162 2.9988 11.8488 2.91809 11.7813C3.47232 12.3929 4.11217 12.9935 4.83774 13.5817C6.77292 15.1505 8.8244 16.2266 9.87492 16.7285C10.2226 16.8945 10.6116 16.9823 11 16.9823C11.3884 16.9823 11.7774 16.8946 12.125 16.7285C13.1757 16.2266 15.2271 15.1504 17.1622 13.5817C19.6797 11.5409 21.1718 9.35037 21.5972 7.07101C21.9278 5.30033 21.456 3.49273 20.3029 2.11167Z" fill="url(#paint15_linear_24_2379)"/>
<path d="M16.0418 0.00691765C15.943 0.00234706 15.8429 0 15.7444 0C14.1705 0 12.6846 0.578982 11.5607 1.63026C11.3577 1.82016 11.1705 2.02168 11 2.23316V16.9822C11.3884 16.9822 11.7775 16.8945 12.1251 16.7284C13.1757 16.2265 15.2271 15.1503 17.1622 13.5816C19.6797 11.5408 21.1719 9.35027 21.5972 7.07091C21.9277 5.30024 21.456 3.49263 20.3029 2.11157C19.235 0.832506 17.7217 0.0850706 16.0418 0.00691765Z" fill="url(#paint16_linear_24_2379)"/>
<path d="M19.2917 18.1806L20.0503 16.939C20.2203 16.6607 20.3099 16.3443 20.3099 16.0221V13.5175C20.3099 12.8418 19.9177 12.2218 19.2913 11.907L16.2472 10.3774C15.815 10.1603 15.2804 10.3363 15.0805 10.7617C14.8211 11.3134 15.0029 11.9632 15.5159 12.318L17.1166 13.4249C17.3443 13.5824 17.3705 13.8971 17.1716 14.0869L16.3138 14.9057C15.937 15.2654 15.7252 15.7534 15.7252 16.2622C15.7252 17.3217 16.625 18.1806 17.735 18.1806H19.2917Z" fill="url(#paint17_linear_24_2379)"/>
<path d="M2.70831 18.1806L1.94979 16.939C1.77978 16.6607 1.69019 16.3443 1.69019 16.0221V13.5175C1.69019 12.8418 2.08235 12.2218 2.70874 11.907L5.75285 10.3774C6.18509 10.1603 6.7196 10.3363 6.91959 10.7617C7.17897 11.3134 6.99715 11.9632 6.48412 12.318L4.88346 13.4249C4.6557 13.5824 4.62951 13.8971 4.82842 14.0869L5.68621 14.9057C6.0631 15.2654 6.27486 15.7534 6.27486 16.2622C6.27486 17.3217 5.37506 18.1806 4.26509 18.1806H2.70831Z" fill="url(#paint18_linear_24_2379)"/>
<path d="M2.70831 18.1806L1.94979 16.939C1.77978 16.6607 1.69019 16.3443 1.69019 16.0221V13.5175C1.69019 12.8418 2.08235 12.2218 2.70874 11.907L5.75285 10.3774C6.18509 10.1603 6.7196 10.3363 6.91959 10.7617C7.17897 11.3134 6.99715 11.9632 6.48412 12.318L4.88346 13.4249C4.6557 13.5824 4.62951 13.8971 4.82842 14.0869L5.68621 14.9057C6.0631 15.2654 6.27486 15.7534 6.27486 16.2622C6.27486 17.3217 5.37506 18.1806 4.26509 18.1806H2.70831Z" fill="url(#paint19_linear_24_2379)"/>
<path d="M19.2917 18.1806L20.0503 16.939C20.2203 16.6607 20.3099 16.3443 20.3099 16.0221V13.5175C20.3099 12.8418 19.9177 12.2218 19.2913 11.907L16.2472 10.3774C15.815 10.1603 15.2804 10.3363 15.0805 10.7617C14.8211 11.3134 15.0029 11.9632 15.5159 12.318L17.1166 13.4249C17.3443 13.5824 17.3705 13.8971 17.1716 14.0869L16.3138 14.9057C15.937 15.2654 15.7252 15.7534 15.7252 16.2622C15.7252 17.3217 16.625 18.1806 17.735 18.1806H19.2917Z" fill="url(#paint20_linear_24_2379)"/>
</g>
<defs>
<linearGradient id="paint0_linear_24_2379" x1="2.55053" y1="13.0942" x2="2.577" y2="13.0998" gradientUnits="userSpaceOnUse">
<stop stop-color="#FCB37E"/>
<stop offset="1" stop-color="#8C6239"/>
</linearGradient>
<linearGradient id="paint1_linear_24_2379" x1="0.390762" y1="11.4089" x2="12.6799" y2="21.7083" gradientUnits="userSpaceOnUse">
<stop stop-color="#FFDECF"/>
<stop offset="1" stop-color="#FAA68E"/>
</linearGradient>
<linearGradient id="paint2_linear_24_2379" x1="9.1808" y1="17.5461" x2="6.01261" y2="15.5726" gradientUnits="userSpaceOnUse">
<stop stop-color="#FAA68E" stop-opacity="0"/>
<stop offset="1" stop-color="#FAA68E"/>
</linearGradient>
<linearGradient id="paint3_linear_24_2379" x1="2.11867" y1="10.5565" x2="5.08391" y2="11.5696" gradientUnits="userSpaceOnUse">
<stop stop-color="#FFDECF"/>
<stop offset="1" stop-color="#FAA68E"/>
</linearGradient>
<linearGradient id="paint4_linear_24_2379" x1="4.38807" y1="9.57217" x2="8.21177" y2="10.3801" gradientUnits="userSpaceOnUse">
<stop stop-color="#FFDECF"/>
<stop offset="1" stop-color="#FAA68E"/>
</linearGradient>
<linearGradient id="paint5_linear_24_2379" x1="3.56415" y1="11.267" x2="5.04539" y2="16.2045" gradientUnits="userSpaceOnUse">
<stop stop-color="#FFDECF"/>
<stop offset="1" stop-color="#FAA68E" stop-opacity="0"/>
</linearGradient>
<linearGradient id="paint6_linear_24_2379" x1="19.4496" y1="13.0942" x2="19.4232" y2="13.0998" gradientUnits="userSpaceOnUse">
<stop stop-color="#FCB37E"/>
<stop offset="1" stop-color="#8C6239"/>
</linearGradient>
<linearGradient id="paint7_linear_24_2379" x1="21.6094" y1="11.4089" x2="9.32027" y2="21.7083" gradientUnits="userSpaceOnUse">
<stop stop-color="#FFDECF"/>
<stop offset="1" stop-color="#FAA68E"/>
</linearGradient>
<linearGradient id="paint8_linear_24_2379" x1="16.1925" y1="18.112" x2="12.535" y2="14.2804" gradientUnits="userSpaceOnUse">
<stop stop-color="#FAA68E" stop-opacity="0"/>
<stop offset="1" stop-color="#B74B52"/>
</linearGradient>
<linearGradient id="paint9_linear_24_2379" x1="16.9555" y1="17.3836" x2="13.298" y2="13.552" gradientUnits="userSpaceOnUse">
<stop stop-color="#FAA68E" stop-opacity="0"/>
<stop offset="1" stop-color="#B74B52"/>
</linearGradient>
<linearGradient id="paint10_linear_24_2379" x1="19.8815" y1="10.5565" x2="16.9163" y2="11.5696" gradientUnits="userSpaceOnUse">
<stop stop-color="#FFDECF"/>
<stop offset="1" stop-color="#FAA68E"/>
</linearGradient>
<linearGradient id="paint11_linear_24_2379" x1="17.6121" y1="9.57217" x2="13.7884" y2="10.3801" gradientUnits="userSpaceOnUse">
<stop stop-color="#FFDECF"/>
<stop offset="1" stop-color="#FAA68E"/>
</linearGradient>
<linearGradient id="paint12_linear_24_2379" x1="18.436" y1="11.267" x2="16.9548" y2="16.2045" gradientUnits="userSpaceOnUse">
<stop stop-color="#FFDECF"/>
<stop offset="1" stop-color="#FAA68E" stop-opacity="0"/>
</linearGradient>
<linearGradient id="paint13_linear_24_2379" x1="10.0544" y1="18.8271" x2="8.21921" y2="13.8798" gradientUnits="userSpaceOnUse">
<stop stop-color="#FAA68E" stop-opacity="0"/>
<stop offset="1" stop-color="#B74B52"/>
</linearGradient>
<linearGradient id="paint14_linear_24_2379" x1="9.23471" y1="4.12308" x2="16.296" y2="13.3595" gradientUnits="userSpaceOnUse">
<stop stop-color="#FF7044"/>
<stop offset="1" stop-color="#F82814"/>
</linearGradient>
<linearGradient id="paint15_linear_24_2379" x1="13.531" y1="10.6675" x2="16.3992" y2="17.0895" gradientUnits="userSpaceOnUse">
<stop stop-color="#F82814" stop-opacity="0"/>
<stop offset="1" stop-color="#C0272D"/>
</linearGradient>
<linearGradient id="paint16_linear_24_2379" x1="12.7694" y1="6.71955" x2="3.38926" y2="-3.30002" gradientUnits="userSpaceOnUse">
<stop stop-color="#F82814" stop-opacity="0"/>
<stop offset="1" stop-color="#C0272D"/>
</linearGradient>
<linearGradient id="paint17_linear_24_2379" x1="10.7353" y1="4.67773" x2="28.9881" y2="32.8123" gradientUnits="userSpaceOnUse">
<stop stop-color="#FFDECF"/>
<stop offset="1" stop-color="#FAA68E"/>
</linearGradient>
<linearGradient id="paint18_linear_24_2379" x1="3.56415" y1="11.267" x2="5.04539" y2="16.2045" gradientUnits="userSpaceOnUse">
<stop stop-color="#FFDECF"/>
<stop offset="1" stop-color="#FAA68E"/>
</linearGradient>
<linearGradient id="paint19_linear_24_2379" x1="3.56415" y1="11.267" x2="5.04539" y2="16.2045" gradientUnits="userSpaceOnUse">
<stop stop-color="#FFDECF"/>
<stop offset="1" stop-color="#FAA68E" stop-opacity="0"/>
</linearGradient>
<linearGradient id="paint20_linear_24_2379" x1="18.4359" y1="11.267" x2="16.9547" y2="16.2045" gradientUnits="userSpaceOnUse">
<stop stop-color="#FFDECF"/>
<stop offset="1" stop-color="#FAA68E" stop-opacity="0"/>
</linearGradient>
<clipPath id="clip0_24_2379">
<rect width="22" height="21" fill="white"/>
</clipPath>
</defs>
</svg>
