<svg width="23" height="23" viewBox="0 0 23 23" fill="none" xmlns="http://www.w3.org/2000/svg">
<path d="M11.5 0V23C17.8513 23 23 17.8513 23 11.5C23 5.14871 17.8513 0 11.5 0Z" fill="#3B88F5"/>
<path d="M21.6117 11.5C21.6117 5.14871 17.0845 0 11.5 0C5.14871 0 0 5.14871 0 11.5C0 17.8513 5.14871 23 11.5 23C17.0845 23 21.6117 17.8513 21.6117 11.5Z" fill="#28ABFA"/>
<path d="M17.4457 10.2973C17.4457 10.2968 9.56917 5.74928 9.56917 5.74928C9.33014 5.61161 9.054 5.54756 8.77782 5.56644L8.77759 17.4335C9.05377 17.4523 9.32991 17.3883 9.56875 17.2504L17.4457 12.7027C17.8611 12.4627 18.1409 12.0142 18.1409 11.5C18.1409 10.9858 17.8611 10.5372 17.4457 10.2973Z" fill="#C4F3FF"/>
<path d="M16.1479 12.7027C16.5092 12.4628 16.7525 12.0142 16.7525 11.5C16.7525 10.9858 16.5092 10.5372 16.1479 10.2973C16.1479 10.2968 9.29757 5.7493 9.29757 5.7493C9.13842 5.64387 8.9603 5.58149 8.77773 5.56645C8.57333 5.58038 8.36892 5.63952 8.1795 5.74888C7.73417 6.006 7.48562 6.47257 7.48552 6.95228C7.48511 6.95251 7.48511 16.0476 7.48511 16.0476C7.48562 16.5275 7.73417 16.9941 8.1795 17.2512C8.36883 17.3605 8.57323 17.4196 8.7775 17.4336C8.96007 17.4185 9.13815 17.3561 9.2972 17.2505L16.1479 12.7027Z" fill="white"/>
</svg>
